<svg xmlns:xlink="http://www.w3.org/1999/xlink" xmlns="http://www.w3.org/2000/svg" viewBox="0 0 24 24" id="loading-bird-anim-1" aria-hidden="true" class="r-1p0dtai r-13gxpu9 r-4qtqp9 r-yyyyoo r-wy61xf r-1d2f490 r-7ovj0o r-ywje51 r-dnmrzs r-u8s1d r-zchlnj r-1plcrui r-ipm5af r-lrvibr r-1blnp2b" width="72"  height="72" ><g fill="#1DA1F2"><path d="M23.643 4.937c-.835.37-1.732.62-2.675.733.962-.576 1.7-1.49 2.048-2.578-.9.534-1.897.922-2.958 1.13-.85-.904-2.06-1.47-3.4-1.47-2.572 0-4.658 2.086-4.658 4.66 0 .364.042.718.12 1.06-3.873-.195-7.304-2.05-9.602-4.868-.4.69-.63 1.49-.63 2.342 0 1.616.823 3.043 2.072 3.878-.764-.025-1.482-.234-2.11-.583v.06c0 2.257 1.605 4.14 3.737 4.568-.392.106-.803.162-1.227.162-.3 0-.593-.028-.877-.082.593 1.85 2.313 3.198 4.352 3.234-1.595 1.25-3.604 1.995-5.786 1.995-.376 0-.747-.022-1.112-.065 2.062 1.323 4.51 2.093 7.14 2.093 8.57 0 13.255-7.098 13.255-13.254 0-.2-.005-.402-.014-.602.91-.658 1.7-1.477 2.323-2.41z" fill="#1DA1F2"></path><path d="M 10,30 C 83,123 9,33 2,27 h 110 s 39,244 204,228 C 154,168 78,63 1,11 h 153 s 118,238 251,2 C 177,100 146,250 97,241 h 45 s 38,249 11,158 C 150,59 5,81 13,229 h 45 s 78,34 241,17 C 153,109 9,53 87,134 h 158 s 171,34 138,164 C 143,158 100,49 84,31 h 99 s 144,198 65,51 C 0,237 5,83 6,178 h 47 s 38,218 167,235 C 42,249 135,251 240,155 h 205 s 96,117 32,212 C 254,85 9,227 149,50 h 118 s 241,185 180,172 C 90,223 64,201 32,7 h 194 s 40,134 249,217 C 35,133 19,38 157,174 h 184 s 63,195 53,251 C 80,59 239,22 18,38 h 180 s 85,143 11,11 C 230,249 128,11 84,219 h 245 s 126,134 99,206 C 224,21 73,115 72,202 h 214 s 225,15 163,211 C 198,200 165,185 75,166 h 151 s 189,147 2,242 C 29,226 156,229 242,198 h 251 s 172,212 35,109" fill="#1D9BF0" fill-opacity="0.03"></path></g></svg>