<svg xmlns:xlink="http://www.w3.org/1999/xlink" xmlns="http://www.w3.org/2000/svg" viewBox="0 0 24 24" id="loading-bird-anim-2" aria-hidden="true" class="r-1p0dtai r-13gxpu9 r-4qtqp9 r-yyyyoo r-wy61xf r-1d2f490 r-7ovj0o r-ywje51 r-dnmrzs r-u8s1d r-zchlnj r-1plcrui r-ipm5af r-lrvibr r-1blnp2b" width="72"  height="72" ><g fill="#1DA1F2"><path d="M23.643 4.937c-.835.37-1.732.62-2.675.733.962-.576 1.7-1.49 2.048-2.578-.9.534-1.897.922-2.958 1.13-.85-.904-2.06-1.47-3.4-1.47-2.572 0-4.658 2.086-4.658 4.66 0 .364.042.718.12 1.06-3.873-.195-7.304-2.05-9.602-4.868-.4.69-.63 1.49-.63 2.342 0 1.616.823 3.043 2.072 3.878-.764-.025-1.482-.234-2.11-.583v.06c0 2.257 1.605 4.14 3.737 4.568-.392.106-.803.162-1.227.162-.3 0-.593-.028-.877-.082.593 1.85 2.313 3.198 4.352 3.234-1.595 1.25-3.604 1.995-5.786 1.995-.376 0-.747-.022-1.112-.065 2.062 1.323 4.51 2.093 7.14 2.093 8.57 0 13.255-7.098 13.255-13.254 0-.2-.005-.402-.014-.602.91-.658 1.7-1.477 2.323-2.41z" fill="#1DA1F2"></path><path d="M 10,30 C 36,12 143,202 119,252 h 234 s 185,249 168,54 C 171,149 122,164 119,104 h 223 s 237,209 117,144 C 105,101 13,134 140,62 h 133 s 201,2 241,145 C 161,197 58,210 181,53 h 191 s 100,25 129,162 C 160,86 23,30 215,29 h 193 s 148,158 75,255 C 136,84 152,75 81,46 h 32 s 41,228 225,13 C 76,101 191,30 86,7 h 136 s 14,148 95,112 C 177,137 94,6 125,120 h 15 s 39,88 129,235 C 251,123 58,91 151,238 h 201 s 244,224 226,117 C 182,172 72,114 8,132 h 132 s 184,58 111,124 C 111,195 250,124 171,243 h 123 s 203,29 253,252 C 48,126 253,170 146,75 h 206 s 226,206 186,9 C 184,126 105,118 75,104 h 30 s 133,193 132,46 C 140,63 95,55 42,44 h 205 s 235,31 147,181 C 215,196 199,10 5,124 h 248 s 172,64 226,168 C 82,179 239,54 80,119 h 31 s 235,98 31,84" fill="#1D9BF0" fill-opacity="0.03"></path></g></svg>