<svg xmlns:xlink="http://www.w3.org/1999/xlink" xmlns="http://www.w3.org/2000/svg" viewBox="0 0 24 24" id="loading-bird-anim-0" aria-hidden="true" class="r-1p0dtai r-13gxpu9 r-4qtqp9 r-yyyyoo r-wy61xf r-1d2f490 r-7ovj0o r-ywje51 r-dnmrzs r-u8s1d r-zchlnj r-1plcrui r-ipm5af r-lrvibr r-1blnp2b" width="72"  height="72" ><g fill="#1DA1F2"><path d="M23.643 4.937c-.835.37-1.732.62-2.675.733.962-.576 1.7-1.49 2.048-2.578-.9.534-1.897.922-2.958 1.13-.85-.904-2.06-1.47-3.4-1.47-2.572 0-4.658 2.086-4.658 4.66 0 .364.042.718.12 1.06-3.873-.195-7.304-2.05-9.602-4.868-.4.69-.63 1.49-.63 2.342 0 1.616.823 3.043 2.072 3.878-.764-.025-1.482-.234-2.11-.583v.06c0 2.257 1.605 4.14 3.737 4.568-.392.106-.803.162-1.227.162-.3 0-.593-.028-.877-.082.593 1.85 2.313 3.198 4.352 3.234-1.595 1.25-3.604 1.995-5.786 1.995-.376 0-.747-.022-1.112-.065 2.062 1.323 4.51 2.093 7.14 2.093 8.57 0 13.255-7.098 13.255-13.254 0-.2-.005-.402-.014-.602.91-.658 1.7-1.477 2.323-2.41z" fill="#1DA1F2"></path><path d="M 10,30 C 208,210 238,75 141,42 h 140 s 129,23 142,51 C 128,198 76,63 151,82 h 237 s 73,40 163,201 C 232,99 143,151 111,94 h 103 s 115,134 86,151 C 83,238 208,5 20,5 h 227 s 188,197 166,191 C 193,122 34,3 63,42 h 192 s 15,24 11,62 C 235,77 59,37 172,131 h 175 s 142,89 12,168 C 249,209 43,68 210,1 h 50 s 100,57 167,15 C 58,53 9,20 22,139 h 98 s 169,164 23,207 C 246,20 253,246 254,90 h 77 s 184,138 50,199 C 41,186 123,160 157,44 h 105 s 204,193 222,89 C 228,9 141,101 146,9 h 98 s 209,153 217,52 C 81,102 108,122 234,155 h 212 s 58,62 215,70 C 169,120 72,213 106,180 h 241 s 98,198 3,117 C 138,184 103,11 208,13 h 71 s 164,51 223,171 C 34,160 57,91 187,133 h 38 s 176,107 181,179 C 226,7 35,5 83,62 h 123 s 253,124 90,160" fill="#1D9BF0" fill-opacity="0.03"></path></g></svg>