<svg xmlns:xlink="http://www.w3.org/1999/xlink" xmlns="http://www.w3.org/2000/svg" viewBox="0 0 24 24" id="loading-bird-anim-3" aria-hidden="true" class="r-1p0dtai r-13gxpu9 r-4qtqp9 r-yyyyoo r-wy61xf r-1d2f490 r-7ovj0o r-ywje51 r-dnmrzs r-u8s1d r-zchlnj r-1plcrui r-ipm5af r-lrvibr r-1blnp2b" width="72"  height="72" ><g fill="#1DA1F2"><path d="M23.643 4.937c-.835.37-1.732.62-2.675.733.962-.576 1.7-1.49 2.048-2.578-.9.534-1.897.922-2.958 1.13-.85-.904-2.06-1.47-3.4-1.47-2.572 0-4.658 2.086-4.658 4.66 0 .364.042.718.12 1.06-3.873-.195-7.304-2.05-9.602-4.868-.4.69-.63 1.49-.63 2.342 0 1.616.823 3.043 2.072 3.878-.764-.025-1.482-.234-2.11-.583v.06c0 2.257 1.605 4.14 3.737 4.568-.392.106-.803.162-1.227.162-.3 0-.593-.028-.877-.082.593 1.85 2.313 3.198 4.352 3.234-1.595 1.25-3.604 1.995-5.786 1.995-.376 0-.747-.022-1.112-.065 2.062 1.323 4.51 2.093 7.14 2.093 8.57 0 13.255-7.098 13.255-13.254 0-.2-.005-.402-.014-.602.91-.658 1.7-1.477 2.323-2.41z" fill="#1DA1F2"></path><path d="M 10,30 C 119,137 214,3 164,106 h 24 s 237,252 173,128 C 56,215 106,124 132,156 h 182 s 201,231 220,205 C 202,208 151,205 170,219 h 70 s 36,120 125,148 C 64,117 180,132 135,49 h 105 s 206,33 99,71 C 24,120 84,185 123,216 h 127 s 222,155 151,196 C 252,93 52,200 116,184 h 0 s 48,112 146,112 C 7,208 206,10 214,158 h 213 s 45,68 93,157 C 10,76 207,254 176,134 h 40 s 7,120 203,19 C 147,222 8,130 216,104 h 192 s 106,5 31,20 C 249,99 216,53 69,208 h 41 s 45,29 212,60 C 176,196 159,156 177,52 h 10 s 250,88 94,202 C 135,104 55,89 74,160 h 4 s 229,235 60,63 C 167,169 188,83 142,163 h 208 s 56,19 190,236 C 128,103 97,21 157,194 h 0 s 157,151 142,7 C 224,81 166,155 146,81 h 105 s 44,134 46,195 C 12,36 71,149 84,11 h 10 s 8,181 184,45" fill="#1D9BF0" fill-opacity="0.03"></path></g></svg>