<?xml version="1.0" encoding="UTF-8"?><svg id="uuid-578ac689-44c4-455e-a870-69a9e92cd149" xmlns="http://www.w3.org/2000/svg" viewBox="0 0 20.5 20.5"><g id="uuid-ff15eb90-bad7-4fdd-a28f-00e3ec7ce0a4"><path d="m2,10.25C2,5.69,5.69,2,10.25,2s8.25,3.69,8.25,8.25-3.69,8.25-8.25,8.25S2,14.81,2,10.25ZM10.25,0C4.59,0,0,4.59,0,10.25s4.59,10.25,10.25,10.25,10.25-4.59,10.25-10.25S15.91,0,10.25,0Zm-4.75,11.5c.69,0,1.25-.56,1.25-1.25s-.56-1.25-1.25-1.25-1.25.56-1.25,1.25.56,1.25,1.25,1.25Zm9.5,0c.69,0,1.25-.56,1.25-1.25s-.56-1.25-1.25-1.25-1.25.56-1.25,1.25.56,1.25,1.25,1.25Zm-3.5-1.25c0,.69-.56,1.25-1.25,1.25s-1.25-.56-1.25-1.25.56-1.25,1.25-1.25,1.25.56,1.25,1.25Z"/></g></svg>