<?xml version="1.0" encoding="utf-8"?>
<!-- Generator: Adobe Illustrator 27.5.0, SVG Export Plug-In . SVG Version: 6.00 Build 0)  -->
<svg version="1.1" id="Layer_1" xmlns="http://www.w3.org/2000/svg" xmlns:xlink="http://www.w3.org/1999/xlink" x="0px" y="0px"
	 viewBox="0 0 26 26" style="enable-background:new 0 0 26 26;" xml:space="preserve">
<g>
	<path d="M11.1,4.6c-3.6,0-6.5,2.9-6.5,6.5s2.9,6.5,6.5,6.5c1.8,0,3.4-0.7,4.6-1.9c1.2-1.2,1.9-2.8,1.9-4.6
		C17.6,7.5,14.7,4.6,11.1,4.6z M1.4,11.1c0-5.4,4.4-9.8,9.8-9.8s9.8,4.4,9.8,9.8c0,2.1-0.7,4.1-1.8,5.6l4.8,4.8l-2.3,2.3l-4.8-4.8
		c-1.6,1.1-3.5,1.8-5.6,1.8C5.7,20.9,1.4,16.5,1.4,11.1z"/>
</g>
</svg>
