<?xml version="1.0" encoding="utf-8"?>
<!-- Generator: Adobe Illustrator 27.5.0, SVG Export Plug-In . SVG Version: 6.00 Build 0)  -->
<svg version="1.1" id="Layer_1" xmlns="http://www.w3.org/2000/svg" xmlns:xlink="http://www.w3.org/1999/xlink" x="0px" y="0px"
	 viewBox="0 0 26 26" style="enable-background:new 0 0 26 26;" xml:space="preserve">
<g>
	<path d="M24.1,13c0-0.8-0.3-1.5-0.7-2.1c-0.4-0.6-1-1.1-1.7-1.5c0.3-0.7,0.3-1.5,0.2-2.2c-0.2-0.7-0.5-1.4-1-2
		c-0.6-0.5-1.2-0.9-2-1c-0.7-0.2-1.5-0.1-2.2,0.2c-0.3-0.7-0.8-1.3-1.5-1.7c-0.6-0.4-1.4-0.7-2.1-0.7c-0.8,0-1.5,0.3-2.1,0.7
		s-1.1,1-1.5,1.7C8.7,4,7.9,3.9,7.1,4.1c-0.8,0.2-1.4,0.5-2,1c-0.5,0.6-0.9,1.2-1,2C4,7.9,4,8.7,4.3,9.4C3.6,9.7,3,10.2,2.6,10.9
		S1.9,12.2,1.9,13c0,0.8,0.3,1.5,0.7,2.1c0.4,0.6,1,1.1,1.7,1.5C4,17.3,4,18.1,4.1,18.9c0.2,0.7,0.5,1.4,1,2c0.6,0.5,1.2,0.9,2,1
		C7.9,22,8.7,22,9.4,21.7c0.3,0.7,0.8,1.3,1.5,1.7c0.6,0.4,1.4,0.7,2.1,0.7c0.8,0,1.5-0.3,2.1-0.7s1.1-1,1.5-1.7
		c0.7,0.3,1.5,0.3,2.2,0.2c0.8-0.2,1.4-0.5,2-1.1c0.5-0.5,0.9-1.2,1.1-2s0.1-1.5-0.2-2.2c0.7-0.3,1.3-0.8,1.7-1.5
		C23.9,14.5,24.1,13.8,24.1,13z M11.4,17.6l-4.1-4.1L8.9,12l2.4,2.4l5.2-5.7l1.6,1.5L11.4,17.6z"/>
</g>
</svg>
