<?xml version="1.0" encoding="utf-8"?>
<!-- Generator: Adobe Illustrator 27.5.0, SVG Export Plug-In . SVG Version: 6.00 Build 0)  -->
<svg version="1.1" id="Layer_1" xmlns="http://www.w3.org/2000/svg" xmlns:xlink="http://www.w3.org/1999/xlink" x="0px" y="0px"
	 viewBox="0 0 26 26" style="enable-background:new 0 0 26 26;" xml:space="preserve">
<g>
	<path d="M13,9.8c-2.4,0-4.3,1.9-4.3,4.3s1.9,4.3,4.3,4.3s4.3-1.9,4.3-4.3S15.4,9.8,13,9.8z M13,16.2c-1.2,0-2.2-1-2.2-2.2
		s1-2.2,2.2-2.2s2.2,1,2.2,2.2S14.2,16.2,13,16.2z M13,1.8L0.7,9.5l1.1,1.8l1.4-0.9v10.6c0,1.5,1.2,2.7,2.7,2.7H20
		c1.5,0,2.7-1.2,2.7-2.7V10.5l1.4,0.9l1.1-1.8C25.3,9.5,13,1.8,13,1.8z M20.6,21.1c0,0.3-0.2,0.5-0.5,0.5H6c-0.3,0-0.5-0.2-0.5-0.5
		v-12L13,4.4l7.6,4.7V21.1z"/>
</g>
</svg>
