<?xml version="1.0" encoding="UTF-8"?><svg id="uuid-8a145ae7-e5b1-471c-910b-55491a13bf1d" xmlns="http://www.w3.org/2000/svg" viewBox="0 0 22.21 22.21"><path d="m7.33,1.99c.87-1.19,2.21-1.99,3.77-1.99s2.9.8,3.78,1.99c1.45-.23,2.97.15,4.07,1.26s1.48,2.62,1.26,4.08c1.19.87,1.99,2.21,1.99,3.77s-.8,2.9-1.99,3.77c.23,1.45-.15,2.98-1.26,4.08s-2.62,1.48-4.07,1.26c-.87,1.19-2.22,1.99-3.78,1.99s-2.9-.8-3.77-1.99c-1.45.23-2.98-.15-4.08-1.26-1.09-1.11-1.48-2.62-1.26-4.08-1.18-.87-1.99-2.21-1.99-3.77s.81-2.9,1.99-3.77c-.23-1.46.15-2.98,1.26-4.08,1.11-1.11,2.63-1.48,4.08-1.26Zm3.77.17c-.92,0-1.8.57-2.3,1.55l-.41.83-.89-.29c-1.04-.35-2.07-.13-2.72.53-.65.65-.87,1.67-.53,2.72l.29.88-.83.42c-.98.5-1.55,1.38-1.55,2.3s.57,1.8,1.55,2.3l.83.42-.29.88c-.34,1.05-.12,2.07.53,2.72.65.66,1.68.88,2.72.53l.89-.29.41.83c.5.97,1.38,1.55,2.3,1.55s1.8-.57,2.3-1.55l.42-.83.89.29c1.04.35,2.06.13,2.72-.53s.87-1.68.52-2.72l-.28-.88.82-.42c.99-.5,1.55-1.38,1.55-2.3s-.56-1.8-1.55-2.3l-.83-.42.29-.88c.35-1.05.13-2.07-.52-2.72-.66-.66-1.68-.88-2.72-.53l-.89.29-.42-.83c-.5-.98-1.38-1.55-2.3-1.55Zm5.13,6.15l-6.72,7.33-4.05-4.05,1.53-1.54,2.45,2.45,5.2-5.67s1.59,1.47,1.59,1.47Z"/></svg>