<?xml version="1.0" encoding="UTF-8"?><svg id="uuid-83988cb6-2d4f-42d2-9c7f-2b6de6ef0192" xmlns="http://www.w3.org/2000/svg" viewBox="0 0 18.64 20.58"><path d="m2.44,18.42h13.76c-.37-1.95-1.11-3.48-2.11-4.54-1.18-1.26-2.78-1.96-4.77-1.96s-3.59.7-4.77,1.96c-1,1.06-1.74,2.59-2.11,4.54Zm.53-6.02c1.61-1.72,3.8-2.64,6.35-2.64s4.74.92,6.35,2.64c1.6,1.71,2.56,4.12,2.85,7l.12,1.19H0l.12-1.19c.29-2.88,1.25-5.29,2.85-7ZM9.32,2.17c-1.2,0-2.17.98-2.17,2.17s.97,2.17,2.17,2.17,2.17-.98,2.17-2.17-.97-2.17-2.17-2.17Zm-4.33,2.17C4.99,1.94,6.93,0,9.32,0s4.33,1.94,4.33,4.33-1.94,4.33-4.33,4.33-4.33-1.94-4.33-4.33Z"/></svg>